<svg width="100" height="80" viewBox="0 0 100 80" fill="none" xmlns="http://www.w3.org/2000/svg">
<path d="M47.8208 5.03983C49.6974 7.87835 56.5981 18.0739 63.1356 27.8059C69.6731 37.538 77.1187 48.5445 79.661 52.3099C82.2639 56.0753 84.322 59.3773 84.322 59.6669C84.322 60.0145 74.8184 60.3041 60.0484 60.3621L35.7748 60.5358L33.7167 63.8378L31.7191 67.1977H65.5569C87.8935 67.1977 99.4552 67.0239 99.4552 66.6184C99.4552 66.2708 89.1041 51.1513 76.4528 33.0195L53.4504 1.01328e-06H48.9104H44.3705L47.8208 5.03983Z" fill="#C778DD"/>
<path d="M38.4988 4.5185C15.4358 43.2151 0 69.3411 0 69.8045C0 70.0942 0.90799 71.7741 1.99758 73.4541C3.63196 76.0029 4.11622 76.4084 4.72155 75.7712C5.14528 75.3657 11.8039 64.4751 19.5521 51.5569C37.8329 21.0283 39.7094 17.958 40.1937 17.958C40.3753 17.958 46.247 26.2998 53.2082 36.4953L65.8596 54.9747L70.9443 55.0326H75.9685L75.1211 53.7003C74.6368 53.0051 66.6465 41.1296 57.385 27.3425C48.1235 13.6134 40.3753 2.3172 40.1937 2.3172C40.0121 2.3172 39.2252 3.30199 38.4988 4.5185Z" fill="#C778DD"/>
<path d="M24.4552 52.7734C15.7385 67.1977 8.71671 79.0152 8.77724 79.0731C8.89831 79.189 28.4504 79.4207 52.2397 79.5945L95.5206 80L97.7603 76.4663L100 72.9906H62.2276C34.7458 72.9906 24.3947 72.8168 24.3947 72.3534C24.3947 72.0058 28.8741 63.8378 34.322 54.2216C39.8305 44.6054 44.6126 36.0319 44.9758 35.2209C45.6417 33.8885 45.4601 33.3671 43.2203 30.181C41.8281 28.2114 40.6174 26.6474 40.4964 26.6474C40.3753 26.6474 33.1114 38.407 24.4552 52.7734Z" fill="#C778DD"/>
</svg>
